<?xml version="1.0" standalone="no"?>
<!DOCTYPE svg PUBLIC "-//W3C//DTD SVG 20010904//EN"
 "http://www.w3.org/TR/2001/REC-SVG-20010904/DTD/svg10.dtd">
<svg version="1.0" xmlns="http://www.w3.org/2000/svg"
 width="225.000000pt" height="225.000000pt" viewBox="0 0 225.000000 225.000000"
 preserveAspectRatio="xMidYMid meet">

<g transform="translate(0.000000,225.000000) scale(0.100000,-0.100000)"
fill="#000000" stroke="none">
<path d="M0 1125 l0 -1125 1125 0 1125 0 0 1125 0 1125 -1125 0 -1125 0 0
-1125z m1130 919 c0 -8 -5 -12 -10 -9 -6 4 -8 11 -5 16 9 14 15 11 15 -7z m85
0 c-9 -9 -18 -14 -21 -11 -9 9 6 27 22 27 13 0 13 -2 -1 -16z m-40 -4 c3 -5 1
-10 -4 -10 -6 0 -11 5 -11 10 0 6 2 10 4 10 3 0 8 -4 11 -10z m90 -20 c3 -5 1
-10 -4 -10 -6 0 -11 5 -11 10 0 6 2 10 4 10 3 0 8 -4 11 -10z m-105 -10 c0 -5
-2 -10 -4 -10 -3 0 -8 5 -11 10 -3 6 -1 10 4 10 6 0 11 -4 11 -10z m107 -16
c17 -8 34 -18 37 -23 4 -5 -12 -1 -33 10 -22 10 -46 19 -53 19 -7 0 -20 5 -28
10 -19 14 32 2 77 -16z m-87 -25 c0 -6 -4 -7 -10 -4 -5 3 -10 11 -10 16 0 6 5
7 10 4 6 -3 10 -11 10 -16z m40 1 c0 -5 -7 -7 -15 -4 -8 4 -15 8 -15 10 0 2 7
4 15 4 8 0 15 -4 15 -10z m58 -25 c-3 -3 -9 2 -12 12 -6 14 -5 15 5 6 7 -7 10
-15 7 -18z m33 -12 c13 -16 12 -17 -3 -4 -10 7 -18 15 -18 17 0 8 8 3 21 -13z
m-214 1 c-3 -3 -12 -4 -19 -1 -8 3 -5 6 6 6 11 1 17 -2 13 -5z m128 -4 c3 -5
2 -10 -4 -10 -5 0 -13 5 -16 10 -3 6 -2 10 4 10 5 0 13 -4 16 -10z m55 -19 c0
-6 -4 -12 -8 -15 -5 -3 -9 1 -9 9 0 8 4 15 9 15 4 0 8 -4 8 -9z m-69 -23 c22
2 44 -4 58 -15 22 -18 22 -21 12 -103 -14 -104 -36 -166 -64 -182 -12 -7 -25
-11 -29 -10 -5 1 -8 -2 -8 -7 0 -12 -70 9 -101 30 l-24 17 37 -1 c23 -1 33 -4
25 -9 -23 -15 19 -9 49 7 25 13 26 15 8 15 -12 0 -27 7 -34 15 -7 9 -8 15 -2
15 5 0 10 6 9 13 0 6 1 25 1 41 2 26 4 28 35 22 40 -7 86 17 54 29 -9 4 -30 5
-46 3 -21 -3 -28 -1 -24 9 8 21 43 26 68 9 31 -20 34 -20 28 3 -5 18 -42 41
-67 41 -25 0 -47 -37 -56 -95 -5 -32 -11 -60 -14 -62 -2 -2 -7 20 -11 49 -9
75 -14 86 -34 93 -16 5 -17 9 -7 30 6 14 17 25 24 25 7 0 11 4 7 9 -6 10 43
20 60 12 5 -3 25 -4 46 -3z m-153 -94 l23 -7 -21 -14 c-12 -8 -27 -12 -35 -9
-21 8 -27 -10 -9 -24 11 -10 23 -11 49 -2 32 9 35 8 36 -11 0 -12 2 -29 4 -39
4 -23 -47 -18 -75 7 -37 33 -43 54 -25 81 17 26 19 27 53 18z m253 -28 c-9
-18 -18 -32 -20 -30 -6 5 20 64 29 64 4 0 0 -15 -9 -34z m-24 -88 c-3 -7 -5
-2 -5 12 0 14 2 19 5 13 2 -7 2 -19 0 -25z m-10 -50 c-3 -7 -5 -2 -5 12 0 14
2 19 5 13 2 -7 2 -19 0 -25z m-200 6 c-3 -3 -12 -4 -19 -1 -8 3 -5 6 6 6 11 1
17 -2 13 -5z m153 -86 c0 -6 -8 -20 -17 -31 -17 -18 -17 -18 14 0 28 15 36 16
54 5 11 -7 23 -11 26 -9 3 3 -5 11 -18 17 -19 10 -20 14 -7 21 17 10 155 -55
151 -71 -2 -5 3 -7 11 -4 20 8 79 -52 72 -73 -4 -10 -4 -14 1 -10 4 5 15 -20
25 -55 19 -67 16 -205 -4 -176 -6 9 -7 6 -3 -9 7 -25 -13 -110 -28 -120 -6 -4
-8 0 -5 8 17 45 16 59 -2 25 -20 -39 -51 -79 -56 -73 -2 1 6 29 17 62 14 41
22 95 25 170 4 119 -2 110 -30 -50 -17 -92 -52 -213 -67 -229 -4 -5 -2 13 6
40 22 82 65 291 65 317 0 14 5 38 11 53 7 21 7 34 -2 51 -18 33 -34 23 -36
-23 -1 -21 -6 -52 -12 -69 l-9 -30 -2 40 c-3 73 -18 2 -34 -158 -12 -121 -19
-159 -40 -202 -15 -29 -34 -56 -43 -59 -15 -6 -16 -5 -1 11 37 42 57 102 67
203 18 169 11 348 -12 333 -6 -4 -8 5 -4 23 3 16 4 23 1 16 -5 -10 -9 -10 -21
-1 -11 10 -11 6 2 -23 15 -30 16 -50 9 -143 l-9 -109 -40 -11 c-27 -8 -64 -9
-115 -3 -41 5 -81 8 -87 8 -7 0 -32 -1 -55 -2 -47 -2 -88 15 -88 37 0 7 -5 15
-12 17 -9 3 -9 17 1 59 6 30 13 61 14 70 1 8 10 23 20 33 9 10 17 23 17 30 0
7 15 21 33 31 27 14 38 15 55 6 11 -6 29 -11 39 -11 15 0 16 2 3 10 -11 7 -6
10 20 10 30 0 82 19 55 20 -5 0 -3 5 5 10 13 9 13 10 0 11 -10 0 -8 3 5 9 28
12 35 12 35 -2z m-260 -1 c0 -2 -12 -14 -27 -28 l-28 -24 24 28 c23 25 31 32
31 24z m193 -14 c-7 -2 -19 -2 -25 0 -7 3 -2 5 12 5 14 0 19 -2 13 -5z m-56
-19 c-3 -3 -12 -4 -19 -1 -8 3 -5 6 6 6 11 1 17 -2 13 -5z m56 -1 c-7 -2 -21
-2 -30 0 -10 3 -4 5 12 5 17 0 24 -2 18 -5z m-258 -40 c-11 -74 -14 -109 -16
-198 l-2 -90 -7 80 c-7 81 -6 98 11 193 12 60 22 71 14 15z m-107 -19 c-35
-18 -37 -28 -3 -12 14 6 28 8 32 5 5 -6 11 -60 28 -289 4 -60 3 -88 -5 -88 -6
0 -8 11 -4 28 4 21 3 24 -6 12 -9 -12 -10 -8 -5 19 5 24 4 32 -5 26 -8 -5 -9
3 -4 30 5 30 4 36 -6 30 -10 -6 -12 -4 -6 10 9 25 -4 106 -16 99 -6 -4 -8 2
-3 15 7 24 -2 61 -16 61 -6 0 -6 -7 1 -19 13 -25 13 -44 0 -36 -12 7 -7 -316
5 -336 5 -7 4 -10 -2 -6 -6 4 -23 37 -38 74 -36 89 -48 269 -21 322 16 30 69
71 91 71 6 -1 -2 -8 -17 -16z m609 -221 c-3 -10 -5 -4 -5 12 0 17 2 24 5 18 2
-7 2 -21 0 -30z m-710 -118 c9 -38 24 -89 34 -112 20 -48 13 -54 -26 -20 -23
20 -27 33 -34 107 -7 80 -2 165 6 115 2 -11 11 -51 20 -90z m90 58 c-3 -10 -5
-4 -5 12 0 17 2 24 5 18 2 -7 2 -21 0 -30z m768 -117 c-9 -22 -26 -51 -38 -63
-11 -13 -16 -23 -9 -23 12 0 47 46 61 81 5 13 10 18 10 11 2 -34 -39 -89 -77
-104 l-40 -16 33 47 c33 46 63 133 67 196 1 16 3 4 5 -29 3 -39 -2 -73 -12
-100z m-649 -11 c-3 -5 -5 1 -5 15 -1 21 -3 22 -12 10 -8 -11 -9 -7 -5 19 3
18 7 48 7 65 1 17 5 2 10 -34 5 -36 7 -69 5 -75z m323 119 c46 -15 49 -18 55
-57 4 -23 9 -52 11 -64 2 -13 -5 -29 -17 -40 -11 -10 -26 -30 -34 -45 -8 -15
-34 -39 -58 -53 -40 -23 -49 -25 -84 -15 -41 11 -67 32 -55 44 4 4 -1 4 -10 0
-10 -3 -17 -3 -15 2 1 5 -3 19 -10 31 -7 12 -9 24 -4 27 13 8 13 139 -1 148
-9 7 -8 8 3 7 8 -1 31 5 50 14 45 21 108 21 169 1z m-432 -66 c-3 -7 -5 -2 -5
12 0 14 2 19 5 13 2 -7 2 -19 0 -25z m176 -154 c9 -1 31 -13 49 -27 18 -14 55
-32 82 -39 28 -8 52 -20 54 -26 7 -21 -81 14 -158 64 -20 13 -18 10 6 -14 17
-16 38 -32 45 -34 8 -3 11 -9 7 -13 -5 -5 -17 0 -28 10 -17 15 -22 16 -37 4
-16 -13 -17 -12 -4 4 12 16 9 22 -12 18 -5 -1 -6 3 -3 8 8 12 -33 63 -45 56
-5 -4 -6 1 -3 10 4 10 2 15 -7 13 -8 -2 -14 3 -13 10 4 44 6 44 28 3 13 -25
30 -45 39 -47z m497 37 c-18 -22 -39 -42 -47 -45 -8 -3 5 17 28 44 50 59 66
60 19 1z m-89 2 c-13 -45 -91 -148 -101 -133 -4 7 -14 17 -21 22 -10 7 -8 8 9
5 17 -4 30 4 57 35 19 23 39 56 46 75 14 42 22 38 10 -4z m-614 -43 c7 0 13
-4 13 -9 0 -12 -68 13 -88 32 -13 14 -8 13 23 -3 22 -11 45 -20 52 -20z m147
-5 l17 -30 -20 24 c-12 13 -21 28 -21 34 0 12 0 11 24 -28z m636 20 c-7 -8
-17 -15 -23 -15 -6 0 -2 7 9 15 25 19 30 19 14 0z m-30 -53 c3 -2 -11 -1 -30
2 -26 5 -31 4 -20 -3 10 -7 11 -11 3 -11 -7 0 -13 -7 -13 -15 0 -9 -6 -12 -15
-9 -8 4 -12 10 -9 15 3 5 -9 12 -26 15 -36 8 -33 14 12 23 29 7 83 -3 98 -17z
m-707 -12 c6 -23 3 -25 -39 -34 -24 -6 -33 -3 -38 10 -8 21 9 42 37 46 29 5
34 2 40 -22z m407 -10 c19 0 22 -42 3 -55 -22 -17 -42 -20 -26 -4 9 9 8 19 -4
42 -14 28 -14 29 2 23 9 -3 20 -6 25 -6z m205 -22 c14 -6 25 -15 25 -20 0 -10
5 -11 -65 12 -57 18 -58 19 -23 19 20 1 49 -4 63 -11z m-580 -9 c-16 -7 -12
-8 18 -6 20 2 37 -1 37 -5 0 -5 14 -22 31 -39 17 -17 28 -33 24 -37 -9 -9 -75
-9 -69 0 2 3 -10 10 -28 13 -18 4 -46 15 -61 24 l-28 16 28 12 c19 8 22 12 10
13 -10 0 -27 -5 -38 -10 -10 -6 -19 -8 -19 -5 0 10 64 34 90 34 23 0 24 -1 5
-10z m295 -23 c45 -14 45 -14 10 -13 -19 1 -44 -2 -56 -6 -15 -5 -28 0 -47 17
l-27 25 38 -4 c20 -2 57 -11 82 -19z m265 -7 c7 -7 7 -10 0 -9 -27 6 -45 -2
-45 -18 0 -10 -5 -23 -11 -29 -8 -8 -1 -17 27 -32 22 -11 32 -20 23 -21 -21 0
-71 39 -64 50 3 5 0 12 -6 16 -8 4 -9 3 -5 -4 4 -7 2 -12 -4 -12 -6 0 -8 -4
-5 -10 4 -7 -3 -7 -20 0 -15 6 -42 10 -61 10 -21 0 -33 4 -29 10 8 14 78 13
92 -1 14 -14 13 7 -1 29 -15 25 15 44 59 37 22 -3 45 -11 50 -16z m30 -19 c-3
-5 -11 -10 -16 -10 -6 0 -7 5 -4 10 3 6 11 10 16 10 6 0 7 -4 4 -10z m-760
-27 c-3 -8 -5 -18 -5 -23 0 -5 -8 -11 -17 -13 -10 -3 11 -5 47 -6 36 -1 77 -8
92 -15 16 -8 63 -27 105 -41 43 -15 94 -36 113 -46 35 -18 35 -18 8 -19 -15 0
-56 11 -90 24 -83 32 -320 94 -333 88 -5 -3 -2 -7 5 -9 63 -16 118 -38 113
-46 -3 -6 -2 -7 4 -4 6 4 28 0 49 -7 22 -8 59 -19 83 -26 39 -10 42 -13 27
-22 -27 -15 -141 -1 -190 23 -22 12 -49 31 -58 42 -9 12 -20 19 -24 15 -10
-11 14 -36 64 -65 34 -20 63 -28 131 -33 85 -6 85 -6 38 -14 -65 -11 -118 -3
-180 28 -28 14 -52 24 -54 22 -1 -1 23 -19 55 -40 32 -22 46 -35 32 -31 -42
12 -102 55 -96 70 2 7 -4 30 -15 51 -12 24 -19 31 -19 20 0 -18 -1 -18 -18 -3
-10 10 -22 17 -25 17 -12 0 -8 -29 6 -37 13 -8 42 -82 35 -89 -3 -2 -19 10
-36 28 -40 38 -54 29 -23 -15 l22 -32 -25 28 c-14 16 -31 25 -36 22 -6 -4 -10
6 -10 24 0 23 5 31 23 34 16 3 13 5 -10 6 -54 2 -38 28 33 56 32 13 34 14 9
10 -26 -4 -27 -4 -11 6 16 10 140 35 174 36 7 0 10 -7 7 -14z m329 -4 c-10
-12 -32 -28 -49 -36 -27 -14 -26 -12 10 20 44 39 70 50 39 16z m131 10 c15 -7
10 -8 -20 -4 -30 3 -50 -1 -74 -16 -39 -23 -52 -18 -26 11 20 22 83 27 120 9z
m600 -13 c19 -8 35 -17 35 -19 0 -2 -17 -4 -37 -4 -34 0 -64 -7 -210 -47 -23
-7 -46 -16 -50 -20 -10 -11 55 -1 127 19 64 18 144 19 189 4 l31 -11 -32 -24
c-18 -13 -48 -31 -65 -39 -32 -15 -42 -25 -25 -25 4 0 32 16 62 35 30 19 58
35 62 35 4 0 7 -12 7 -27 -1 -17 -3 -21 -6 -10 -6 22 -7 22 -67 -12 -71 -40
-120 -54 -187 -53 -57 0 -199 39 -199 54 0 12 22 9 50 -7 14 -8 32 -14 40 -14
8 -1 -5 9 -30 20 -42 19 -44 21 -27 34 11 8 25 11 33 8 10 -3 12 0 8 10 -8 23
32 44 100 51 32 4 70 13 85 21 l26 15 -37 -6 c-31 -5 -38 -3 -38 10 0 13 12
16 60 16 33 0 76 -7 95 -14z m-465 -31 c10 -12 9 -15 -6 -16 -19 0 -44 -4 -96
-14 -16 -2 -28 -1 -28 4 0 4 -19 13 -42 18 -37 9 -33 9 33 5 46 -3 83 0 95 6
25 15 29 15 44 -3z m-163 -30 c19 -8 44 -15 54 -15 11 0 19 -4 19 -8 0 -9 -73
0 -104 13 -14 6 -17 5 -12 -3 5 -8 2 -10 -8 -6 -9 3 -14 10 -11 14 3 5 -1 11
-7 13 -7 3 -3 6 10 6 12 1 39 -6 59 -14z m180 -101 c13 -44 15 -126 4 -164 -5
-16 -8 0 -7 45 0 53 -5 80 -22 111 -11 23 -18 44 -15 48 13 13 28 -2 40 -40z
m-66 4 c11 -21 11 -22 -4 -10 -14 12 -15 6 -13 -60 2 -40 0 -86 -4 -103 -7
-26 -8 -24 -9 20 -1 28 -4 71 -7 97 -4 32 -2 52 8 62 17 19 15 20 29 -6z
m-134 -10 c-3 -8 -6 -5 -6 6 -1 11 2 17 5 13 3 -3 4 -12 1 -19z m-45 -20 c-18
-18 -15 -31 6 -24 14 5 14 4 -2 -9 -11 -8 -25 -15 -30 -15 -6 0 -4 5 4 11 12
8 10 10 -10 5 -24 -5 -24 -5 -5 10 11 9 19 20 18 25 -2 5 5 9 14 9 13 0 14 -3
5 -12z m383 -51 c51 -16 81 -22 150 -33 71 -11 52 -17 -32 -11 -86 7 -136 23
-180 57 -37 29 -50 12 -33 -39 8 -25 20 -41 34 -45 18 -5 19 -8 6 -17 -12 -9
-11 -10 8 -6 12 3 20 1 17 -4 -3 -4 4 -11 17 -13 13 -3 32 -7 43 -9 12 -3 6
-5 -13 -6 -36 -1 -96 25 -87 38 2 5 -7 12 -21 15 -22 6 -24 9 -12 23 7 9 8 14
2 10 -7 -4 -12 12 -13 50 l-2 56 33 -25 c18 -14 56 -32 83 -41z m-480 33 c-53
-24 -70 -24 -25 0 19 11 42 19 50 19 8 0 -3 -9 -25 -19z m311 -52 c3 -49 2
-50 -5 -13 -4 22 -11 51 -15 65 -7 20 -6 23 4 13 7 -6 14 -36 16 -65z m-611
-36 c-6 -7 -61 27 -85 53 -21 22 -15 20 31 -11 31 -22 55 -40 54 -42z m508 -5
c-6 -61 -23 -79 -23 -24 0 28 20 90 27 83 1 -1 -1 -27 -4 -59z m-69 -46 c-2
-2 -6 8 -10 23 -3 14 -8 26 -10 26 -3 0 -20 -15 -38 -34 -19 -18 -44 -36 -57
-39 l-24 -6 25 19 c14 11 30 20 37 20 6 0 24 20 40 44 l28 43 6 -46 c3 -25 5
-48 3 -50z m33 77 c-3 -8 -6 -5 -6 6 -1 11 2 17 5 13 3 -3 4 -12 1 -19z m-10
-70 c-2 -13 -4 -5 -4 17 -1 22 1 32 4 23 2 -10 2 -28 0 -40z m-260 36 c-3 -3
-12 -4 -19 -1 -8 3 -5 6 6 6 11 1 17 -2 13 -5z m-64 -11 c-18 -2 -48 -2 -65 0
-18 2 -4 4 32 4 36 0 50 -2 33 -4z m780 -50 c-13 -2 -35 -2 -50 0 -16 2 -5 4
22 4 28 0 40 -2 28 -4z"/>
<path d="M1110 1820 c0 -5 5 -10 11 -10 5 0 7 5 4 10 -3 6 -8 10 -11 10 -2 0
-4 -4 -4 -10z"/>
<path d="M1391 1444 c0 -11 3 -14 6 -6 3 7 2 16 -1 19 -3 4 -6 -2 -5 -13z"/>
<path d="M1416 1438 c-3 -13 -5 -34 -5 -48 1 -15 5 -7 10 19 9 47 6 68 -5 29z"/>
<path d="M1000 1250 c0 -5 5 -10 10 -10 6 0 10 5 10 10 0 6 -4 10 -10 10 -5 0
-10 -4 -10 -10z"/>
<path d="M1121 1236 c12 -10 59 -15 59 -6 0 5 -14 10 -32 10 -17 0 -29 -2 -27
-4z"/>
<path d="M1521 1124 c0 -11 3 -14 6 -6 3 7 2 16 -1 19 -3 4 -6 -2 -5 -13z"/>
<path d="M745 1176 c3 -32 10 -66 15 -75 11 -19 4 45 -10 99 -8 29 -9 25 -5
-24z"/>
<path d="M1085 820 c-3 -6 1 -7 9 -4 18 7 21 14 7 14 -6 0 -13 -4 -16 -10z"/>
<path d="M548 753 c6 -2 18 -2 25 0 6 3 1 5 -13 5 -14 0 -19 -2 -12 -5z"/>
<path d="M1655 669 c-16 -5 -57 -12 -90 -14 -33 -3 -71 -7 -85 -9 -14 -2 -29
-5 -35 -5 -5 -1 -5 -5 1 -11 13 -13 96 -18 162 -9 59 8 132 36 132 51 0 10
-46 9 -85 -3z"/>
<path d="M1501 596 c12 -10 60 -16 54 -6 -3 5 -18 10 -32 10 -15 0 -24 -2 -22
-4z"/>
<path d="M1575 590 c3 -5 8 -10 11 -10 2 0 4 5 4 10 0 6 -5 10 -11 10 -5 0 -7
-4 -4 -10z"/>
</g>
</svg>
